<svg width="25" height="25" viewBox="0 0 25 25" fill="none" xmlns="http://www.w3.org/2000/svg">
<path fill-rule="evenodd" clip-rule="evenodd" d="M10.6369 15.0874C12.6271 12.3104 10.9092 9.47232 8.55789 8.88382C9.01513 7.99275 9.64357 6.45845 10.277 4.20887C11.9611 4.80938 13.447 5.28528 14.7319 5.69678C18.4782 6.89658 20.5149 7.54885 20.7671 9.1462C21.1813 8.22368 21.4043 7.03987 21.6022 5.98888C21.8538 4.65323 22.0649 3.53209 22.5768 3.43435C22.6483 3.4207 22.6341 3.42282 22.5468 3.43582C21.5172 3.58914 10.321 5.25647 9.73505 0.412857C9.36437 4.02562 8.74849 7.16729 6.74899 9.58698C10.728 11.5461 11.4658 12.261 10.6369 15.0874ZM12.43 17.3086C11.8662 15.0349 13.6643 12.2432 17.147 12.6301C14.164 13.2529 13.8544 14.2153 13.9245 18.5152C10.7652 17.9526 7.59294 18.9043 4.10345 20.2855C8.27337 17.5138 1.48696 8.78536 0.86289 7.9827L0.862888 7.9827C0.809989 7.91467 0.801368 7.90358 0.847448 7.95789C1.17747 8.34687 2.30549 7.99991 3.64933 7.58657C4.70677 7.26132 5.89784 6.89496 6.93891 6.81373C5.59138 7.77785 5.94895 9.81425 6.60667 13.56C6.83225 14.8447 7.09313 16.3305 7.33264 18.043C9.6945 17.525 11.3976 17.3385 12.43 17.3086ZM17.9747 10.0445C16.21 11.6511 12.798 11.5488 11.4049 8.45346C13.457 10.6275 14.4781 10.4043 18.3135 8.19597C19.3867 11.1096 21.8295 13.277 24.8175 15.4939C20.2376 13.4053 15.7742 23.4241 15.3638 24.3454C15.329 24.4235 15.3233 24.4362 15.3491 24.3707C15.5343 23.9012 14.658 23.1348 13.614 22.2218C12.7925 21.5033 11.8672 20.6941 11.2735 19.8672C12.8151 20.508 14.4693 19.1918 17.5121 16.7709C18.5557 15.9406 19.7626 14.9804 21.1844 13.9245C19.5372 12.2156 18.5178 10.8898 17.9747 10.0445Z" fill="#805AD5"/>
<path d="M8.55789 8.88382L8.51341 8.86099L8.48465 8.91703L8.54575 8.93232L8.55789 8.88382ZM10.6369 15.0874L10.5889 15.0733L10.6776 15.1165L10.6369 15.0874ZM10.277 4.20887L10.2938 4.16177L10.2434 4.14379L10.2289 4.19531L10.277 4.20887ZM14.7319 5.69678L14.7167 5.74439L14.7319 5.69678ZM20.7671 9.1462L20.7177 9.154L20.7439 9.31993L20.8127 9.16668L20.7671 9.1462ZM21.6022 5.98888L21.5531 5.97962L21.5531 5.97962L21.6022 5.98888ZM22.5768 3.43435L22.5675 3.38524L22.5675 3.38524L22.5768 3.43435ZM22.5468 3.43582L22.5542 3.48527L22.5542 3.48527L22.5468 3.43582ZM9.73505 0.412857L9.78469 0.406852L9.68531 0.407754L9.73505 0.412857ZM6.74899 9.58698L6.71045 9.55513L6.67015 9.60389L6.72691 9.63184L6.74899 9.58698ZM17.147 12.6301L17.1572 12.6791L17.1525 12.5804L17.147 12.6301ZM12.43 17.3086L12.4314 17.3586L12.4934 17.3568L12.4785 17.2966L12.43 17.3086ZM13.9245 18.5152L13.9157 18.5644L13.9755 18.5751L13.9745 18.5144L13.9245 18.5152ZM4.10345 20.2855L4.07577 20.2439L4.12185 20.332L4.10345 20.2855ZM0.86289 7.9827L0.902752 7.95171L0.897697 7.94681L0.86289 7.9827ZM0.862888 7.9827L0.823026 8.0137L0.828081 8.0186L0.862888 7.9827ZM0.847448 7.95789L0.809322 7.99024L0.809322 7.99024L0.847448 7.95789ZM3.64933 7.58657L3.63463 7.53878L3.63463 7.53878L3.64933 7.58657ZM6.93891 6.81373L6.968 6.85439L7.11403 6.74991L6.93502 6.76388L6.93891 6.81373ZM6.60667 13.56L6.55742 13.5687L6.55742 13.5687L6.60667 13.56ZM7.33264 18.043L7.28312 18.0499L7.2906 18.1034L7.34335 18.0918L7.33264 18.043ZM11.4049 8.45346L11.4413 8.41914L11.3594 8.47398L11.4049 8.45346ZM17.9747 10.0445L18.0168 10.0175L17.9848 9.96771L17.941 10.0075L17.9747 10.0445ZM18.3135 8.19597L18.3604 8.17868L18.3399 8.12305L18.2885 8.15263L18.3135 8.19597ZM24.8175 15.4939L24.7968 15.5394L24.8473 15.4537L24.8175 15.4939ZM15.3638 24.3454L15.3181 24.3251L15.3181 24.3251L15.3638 24.3454ZM15.3491 24.3707L15.3026 24.3523L15.3026 24.3523L15.3491 24.3707ZM13.614 22.2218L13.5811 22.2594L13.5811 22.2594L13.614 22.2218ZM11.2735 19.8672L11.2927 19.8211L11.1304 19.7536L11.2329 19.8964L11.2735 19.8672ZM17.5121 16.7709L17.5433 16.81L17.5433 16.81L17.5121 16.7709ZM21.1844 13.9245L21.2142 13.9647L21.2598 13.9308L21.2204 13.8898L21.1844 13.9245ZM8.54575 8.93232C9.70641 9.22282 10.7109 10.0689 11.1793 11.1843C11.6469 12.2977 11.5817 13.6832 10.5963 15.0582L10.6776 15.1165C11.6823 13.7146 11.7532 12.2925 11.2715 11.1456C10.7907 10.0006 9.76068 9.13332 8.57003 8.83532L8.54575 8.93232ZM10.2289 4.19531C9.5961 6.44257 8.96876 7.9736 8.51341 8.86099L8.60238 8.90665C9.0615 8.0119 9.69105 6.47433 10.3252 4.22242L10.2289 4.19531ZM14.7472 5.64916C13.4623 5.23766 11.977 4.76198 10.2938 4.16177L10.2602 4.25596C11.9451 4.85678 13.4318 5.33291 14.7167 5.74439L14.7472 5.64916ZM20.8165 9.13841C20.6866 8.31588 20.0965 7.74312 19.0825 7.22783C18.069 6.71286 16.6186 6.24852 14.7472 5.64916L14.7167 5.74439C16.5915 6.34484 18.0326 6.80653 19.0372 7.31698C20.0411 7.82712 20.5954 8.37917 20.7177 9.154L20.8165 9.13841ZM21.5531 5.97962C21.3548 7.03221 21.1328 8.20968 20.7215 9.12572L20.8127 9.16668C21.2298 8.23768 21.4537 7.04753 21.6513 5.99813L21.5531 5.97962ZM22.5675 3.38524C22.4216 3.4131 22.3024 3.51308 22.2027 3.65865C22.103 3.80417 22.019 4.00047 21.9443 4.23205C21.7949 4.69518 21.6786 5.31296 21.5531 5.97962L21.6513 5.99813C21.7773 5.32915 21.8924 4.71853 22.0395 4.26275C22.113 4.03487 22.1935 3.84908 22.2852 3.71516C22.3769 3.58128 22.4762 3.50448 22.5862 3.48346L22.5675 3.38524ZM22.5542 3.48527C22.576 3.48202 22.5932 3.47946 22.6056 3.47767C22.6118 3.47677 22.6166 3.47608 22.6202 3.47559C22.6243 3.47505 22.6256 3.47492 22.6254 3.47493C22.6254 3.47493 22.6242 3.47503 22.6227 3.47505C22.622 3.47505 22.62 3.47506 22.6174 3.4748C22.6161 3.47467 22.6136 3.47438 22.6105 3.47362C22.6085 3.47312 22.601 3.47126 22.5932 3.4656C22.5838 3.45876 22.5691 3.44193 22.5732 3.41704C22.5761 3.39899 22.5877 3.38913 22.59 3.38716C22.5964 3.38161 22.6029 3.37914 22.6031 3.37907C22.6049 3.37833 22.6063 3.37787 22.6068 3.37769C22.6075 3.37746 22.608 3.37731 22.6083 3.37724C22.6092 3.377 22.6086 3.37718 22.6045 3.37803C22.5975 3.37946 22.5854 3.38181 22.5675 3.38524L22.5862 3.48346C22.604 3.48007 22.6169 3.47757 22.6247 3.47596C22.628 3.47529 22.6321 3.47441 22.6352 3.47354C22.6357 3.4734 22.6385 3.47265 22.6417 3.47133C22.642 3.4712 22.6485 3.46868 22.655 3.4631C22.6574 3.46111 22.6689 3.45123 22.6719 3.43316C22.6759 3.40826 22.6613 3.39142 22.6518 3.38456C22.644 3.3789 22.6365 3.37703 22.6344 3.37651C22.6313 3.37575 22.6288 3.37544 22.6274 3.37531C22.6247 3.37503 22.6226 3.37504 22.6217 3.37505C22.6197 3.37507 22.6181 3.3752 22.6173 3.37526C22.6096 3.37588 22.5814 3.38012 22.5395 3.38636L22.5542 3.48527ZM9.68541 0.418862C9.83473 1.65304 10.661 2.46891 11.8186 2.99567C12.9751 3.52188 14.469 3.76325 15.9718 3.84811C18.9783 4.01788 22.0391 3.56198 22.5542 3.48527L22.5395 3.38636C22.025 3.46298 18.9729 3.91741 15.9774 3.74827C14.4792 3.66367 12.9998 3.42328 11.86 2.90464C10.7214 2.38655 9.92837 1.59448 9.78469 0.406852L9.68541 0.418862ZM6.78754 9.61883C8.79737 7.18663 9.41405 4.03138 9.78479 0.41796L9.68531 0.407754C9.3147 4.01986 8.69962 7.14794 6.71045 9.55513L6.78754 9.61883ZM10.6849 15.1014C11.1002 13.6852 11.1292 12.7791 10.536 11.9821C10.2415 11.5864 9.79621 11.2212 9.17827 10.8331C8.56013 10.4449 7.76594 10.032 6.77108 9.54212L6.72691 9.63184C7.72154 10.1216 8.51169 10.5326 9.12509 10.9178C9.73867 11.3031 10.1721 11.6606 10.4558 12.0418C11.0191 12.7986 11.0025 13.6631 10.5889 15.0733L10.6849 15.1014ZM17.1525 12.5804C13.635 12.1896 11.8093 15.0134 12.3815 17.3207L12.4785 17.2966C11.923 15.0564 13.6936 12.2968 17.1415 12.6798L17.1525 12.5804ZM13.9745 18.5144C13.957 17.4395 13.9633 16.5755 14.0288 15.8738C14.0943 15.172 14.2188 14.6364 14.4353 14.2166C14.8657 13.3823 15.668 12.99 17.1572 12.6791L17.1368 12.5812C15.643 12.893 14.7991 13.2933 14.3464 14.1708C14.1214 14.607 13.9952 15.1571 13.9292 15.8645C13.8631 16.5721 13.857 17.4409 13.8745 18.516L13.9745 18.5144ZM4.12185 20.332C7.61082 18.951 10.7715 18.0045 13.9157 18.5644L13.9333 18.466C10.759 17.9007 7.57506 18.8576 4.08505 20.239L4.12185 20.332ZM0.823417 8.0134C1.13528 8.41451 2.98494 10.7936 4.23579 13.4172C4.86141 14.7294 5.33502 16.0984 5.39412 17.3092C5.45312 18.5179 5.09939 19.5635 4.07577 20.2439L4.13113 20.3272C5.19247 19.6217 5.55416 18.5368 5.494 17.3043C5.43394 16.0739 4.9538 14.6909 4.32605 13.3742C3.07016 10.74 1.21457 8.35356 0.902362 7.95201L0.823417 8.0134ZM0.828081 8.0186L0.828082 8.0186L0.897697 7.94681L0.897695 7.94681L0.828081 8.0186ZM0.885575 7.92554C0.874103 7.91202 0.865748 7.90223 0.860603 7.89635C0.858465 7.89391 0.855633 7.8907 0.8533 7.88839C0.852914 7.88801 0.850861 7.88595 0.848068 7.88381C0.8477 7.88353 0.84233 7.87919 0.834335 7.87634C0.831249 7.87524 0.817961 7.87059 0.801743 7.87599C0.779377 7.88342 0.770261 7.90252 0.768159 7.9154C0.766506 7.92552 0.768455 7.93346 0.769036 7.93575C0.769874 7.93907 0.770882 7.94161 0.771432 7.94292C0.772554 7.94559 0.773674 7.9476 0.774121 7.94839C0.775143 7.95019 0.776105 7.95164 0.776516 7.95225C0.780824 7.95868 0.798101 7.98083 0.823415 8.01339L0.902361 7.95201C0.889109 7.93497 0.878724 7.92161 0.87127 7.91195C0.867539 7.90711 0.864631 7.90331 0.862509 7.9005C0.860095 7.89731 0.859425 7.89634 0.859586 7.89658C0.859621 7.89663 0.860304 7.89764 0.861143 7.89912C0.861499 7.89975 0.862553 7.90163 0.863633 7.9042C0.864162 7.90546 0.865154 7.90795 0.865984 7.91124C0.866555 7.9135 0.868501 7.92141 0.866852 7.93151C0.864754 7.94436 0.855647 7.96345 0.833296 7.97088C0.817094 7.97627 0.803828 7.97163 0.80077 7.97054C0.79283 7.96771 0.78754 7.96341 0.787278 7.96321C0.785722 7.96202 0.784602 7.96101 0.784147 7.9606C0.783591 7.96009 0.783181 7.95969 0.782971 7.95948C0.782268 7.95878 0.782653 7.95913 0.78536 7.96222C0.789906 7.96741 0.797754 7.9766 0.809322 7.99024L0.885575 7.92554ZM3.63463 7.53878C2.96166 7.74577 2.3469 7.93478 1.85922 8.02391C1.61536 8.06849 1.40657 8.08742 1.24001 8.0723C1.07307 8.05715 0.956004 8.00855 0.885575 7.92554L0.809322 7.99024C0.903904 8.10172 1.0516 8.15561 1.23097 8.17189C1.41073 8.18821 1.62982 8.1675 1.8772 8.12228C2.37199 8.03185 2.99316 7.84071 3.66403 7.63436L3.63463 7.53878ZM6.93502 6.76388C5.88734 6.84563 4.69062 7.21397 3.63463 7.53878L3.66403 7.63436C4.72292 7.30866 5.90835 6.9443 6.9428 6.86358L6.93502 6.76388ZM6.65592 13.5514C6.32673 11.6766 6.07397 10.2361 6.07082 9.14361C6.06767 8.05269 6.31346 7.3227 6.968 6.85439L6.90981 6.77306C6.21682 7.26888 5.96763 8.03915 5.97082 9.1439C5.974 10.2471 6.22889 11.6976 6.55742 13.5687L6.65592 13.5514ZM7.38216 18.0361C7.14252 16.3226 6.88149 14.836 6.65592 13.5514L6.55742 13.5687C6.78301 14.8534 7.04375 16.3383 7.28312 18.0499L7.38216 18.0361ZM12.4285 17.2587C11.3923 17.2887 9.68599 17.4757 7.32193 17.9941L7.34335 18.0918C9.70301 17.5743 11.4029 17.3884 12.4314 17.3586L12.4285 17.2587ZM11.3594 8.47398C12.7681 11.6041 16.2216 11.7082 18.0084 10.0815L17.941 10.0075C16.1983 11.5941 12.828 11.4935 11.4505 8.43294L11.3594 8.47398ZM18.2885 8.15263C17.3298 8.70465 16.5488 9.13154 15.8842 9.42791C15.2194 9.72434 14.6744 9.8887 14.1874 9.91822C13.2195 9.9769 12.465 9.50374 11.4413 8.41914L11.3686 8.48778C12.3969 9.57727 13.179 10.0795 14.1935 10.018C14.6977 9.98747 15.2553 9.81783 15.9249 9.51924C16.5946 9.2206 17.3795 8.79145 18.3384 8.2393L18.2885 8.15263ZM24.8473 15.4537C21.8595 13.237 19.428 11.0772 18.3604 8.17868L18.2666 8.21325C19.3454 11.1421 21.7995 13.317 24.7877 15.5341L24.8473 15.4537ZM15.4094 24.3658C15.6145 23.9054 16.8312 21.1747 18.5674 18.8206C19.4357 17.6433 20.4313 16.5638 21.4922 15.9088C22.5519 15.2546 23.6716 15.0263 24.7968 15.5394L24.8383 15.4484C23.6735 14.9172 22.5179 15.158 21.4397 15.8237C20.3628 16.4886 19.3582 17.5798 18.4869 18.7613C16.7438 21.1247 15.5235 23.8641 15.3181 24.3251L15.4094 24.3658ZM15.3026 24.3523C15.2962 24.3687 15.2916 24.3805 15.2888 24.3878C15.2877 24.3907 15.2862 24.3948 15.2853 24.398C15.2851 24.3985 15.2842 24.4014 15.2837 24.405C15.2836 24.4054 15.2823 24.4127 15.2839 24.4216C15.2845 24.4252 15.2873 24.4398 15.3011 24.4513C15.3192 24.4663 15.3397 24.4637 15.3505 24.4597C15.3596 24.4564 15.3652 24.4512 15.367 24.4496C15.3694 24.4474 15.3711 24.4454 15.372 24.4443C15.3738 24.4421 15.375 24.4402 15.3755 24.4394C15.3767 24.4376 15.3775 24.4361 15.3778 24.4355C15.3815 24.4286 15.3928 24.4031 15.4094 24.3658L15.3181 24.3251C15.3094 24.3446 15.3025 24.36 15.2976 24.371C15.2951 24.3765 15.2931 24.3808 15.2917 24.384C15.29 24.3876 15.2895 24.3886 15.2896 24.3884C15.2896 24.3883 15.2902 24.3872 15.2911 24.3858C15.2915 24.3852 15.2927 24.3834 15.2944 24.3813C15.2952 24.3802 15.2969 24.3782 15.2993 24.376C15.301 24.3744 15.3067 24.3693 15.3157 24.366C15.3265 24.362 15.347 24.3594 15.3651 24.3744C15.3789 24.3859 15.3817 24.4005 15.3823 24.4041C15.3839 24.4129 15.3825 24.4201 15.3825 24.4204C15.3822 24.4224 15.3818 24.4239 15.3817 24.4245C15.3815 24.4253 15.3813 24.4259 15.3812 24.4262C15.3809 24.4272 15.381 24.4268 15.3824 24.423C15.3848 24.4166 15.3892 24.4055 15.3957 24.389L15.3026 24.3523ZM13.5811 22.2594C14.1039 22.7167 14.5813 23.1343 14.9052 23.4959C15.0672 23.6768 15.1884 23.841 15.2578 23.9867C15.3273 24.1327 15.3417 24.2532 15.3026 24.3523L15.3957 24.389C15.4491 24.2534 15.4235 24.1021 15.3481 23.9438C15.2726 23.7853 15.1441 23.6128 14.9797 23.4292C14.6508 23.062 14.168 22.6399 13.6469 22.1841L13.5811 22.2594ZM11.2329 19.8964C11.8306 20.7288 12.7608 21.542 13.5811 22.2594L13.6469 22.1841C12.8242 21.4646 11.9038 20.6593 11.3141 19.8381L11.2329 19.8964ZM17.481 16.7318C15.9582 17.9433 14.7877 18.8745 13.8055 19.4235C12.8244 19.972 12.0427 20.1328 11.2927 19.8211L11.2543 19.9134C12.0459 20.2424 12.8622 20.0654 13.8543 19.5108C14.8453 18.9568 16.0233 18.0194 17.5433 16.81L17.481 16.7318ZM21.1546 13.8844C19.7321 14.9408 18.5246 15.9015 17.481 16.7318L17.5433 16.81C18.5869 15.9797 19.7932 15.02 21.2142 13.9647L21.1546 13.8844ZM17.9326 10.0715C18.478 10.9202 19.4996 12.2486 21.1484 13.9592L21.2204 13.8898C19.5748 12.1826 18.5577 10.8593 18.0168 10.0175L17.9326 10.0715Z" fill="#805AD5"/>
</svg>
